<svg xmlns="http://www.w3.org/2000/svg" width="107" height="107" viewBox="0 0 107 107"><defs><style>.a{fill:#125d91;}.b{fill:#fff;}</style></defs><g transform="translate(-919 -1042)"><g transform="translate(68 761)"><g transform="translate(851 281)"><circle class="a" cx="53.5" cy="53.5" r="53.5"/></g></g><g transform="translate(1817.876 558.886)"><path class="b" d="M-850.768,737.062h-16.826c-1.207,0-1.608-.583-1.169-1.7a1.854,1.854,0,0,0-.628-2.184c-2.262-1.661-3.309-1.456-3.256-4.241a6.459,6.459,0,0,0-.01-1.092c-.038-.48.145-.548.57-.547,3.981.015,7.962.009,11.942.009,5.786,0,36.039,0,41.825.006.316,0,.48-.042.582-.4a1.674,1.674,0,0,1,1.423-1.237,3.751,3.751,0,0,1,.619-.039q7.791,0,15.583,0c.516,0,.521,0,.292.48-1.86,3.876-3.712,4.493-5.587,8.362a4.313,4.313,0,0,1-4.158,2.581C-815.144,737.066-845.19,737.062-850.768,737.062Z" transform="translate(-8.396 -185.446)"/><path class="b" d="M-868.222,528.484c-.644.519-1.255,1.047-1.905,1.522a1,1,0,0,0-.44.928c.016,3.344,0,6.688.016,10.031,0,.335-.068.45-.432.448q-3.973-.025-7.946,0c-.37,0-.434-.122-.433-.454.011-3.344,0-6.688.017-10.031,0-.4-.108-.5-.491-.478-.575.034-1.154,0-1.731.013-.232.005-.312-.072-.3-.3.015-.443.027-.889,0-1.331-.022-.329.072-.422.41-.418,1.672.019,3.344-.007,5.016.02.41.007.5-.12.476-.5a11.168,11.168,0,0,1,0-1.286c.011-.26-.089-.33-.335-.322-.5.016-1.006-.006-1.509.009-.24.007-.33-.053-.336-.317-.024-1.039-.034-1.033.987-1.042.381,0,.874.164,1.112-.07s.063-.729.074-1.109q.018-.665,0-1.331c-.007-.229.032-.339.307-.344.909-.019.909-.032.909.894,0,.547.012,1.1-.005,1.642-.008.25.067.336.322.326.5-.018,1.007.01,1.509-.011.278-.011.344.087.347.353.011,1,.021,1-.976,1.007-.381,0-.87-.163-1.114.07s-.074.728-.079,1.108c-.012.908,0,.908.884.908q2.6,0,5.194,0A.726.726,0,0,1-868.222,528.484Zm-5.351,3.181c-.366,0-.661.012-.955,0-.237-.013-.3.084-.3.31.012.516.016,1.032,0,1.548-.009.271.112.319.345.311.368-.014.737,0,1.106,0,.933,0,.942,0,.928-.948-.005-.391.172-.893-.082-1.144C-872.768,531.5-873.263,531.694-873.573,531.664Zm-.051,4.041c-.281,0-.562.015-.842,0-.257-.018-.375.043-.361.335.024.5.016,1,0,1.506-.007.228.06.312.3.306.591-.015,1.182-.013,1.773,0,.219,0,.319-.042.31-.289-.018-.516-.015-1.034,0-1.551.006-.226-.051-.321-.293-.305C-873.031,535.721-873.328,535.706-873.624,535.706Z"/><path class="b" d="M-617.837,615.865c0,1.036,0,2.071,0,3.107,0,.6-.363.855-1.212.855q-2.775,0-5.549,0c-.782,0-1.175-.274-1.176-.819q0-3.138,0-6.276c0-.554.376-.819,1.169-.821q2.819-.005,5.638,0c.742,0,1.123.265,1.128.785C-617.831,613.752-617.837,614.809-617.837,615.865Z" transform="translate(-230.09 -79.017)"/><path class="b" d="M-617.837,615.865c0,1.036,0,2.071,0,3.107,0,.6-.363.855-1.212.855q-2.775,0-5.549,0c-.782,0-1.175-.274-1.176-.819q0-3.138,0-6.276c0-.554.376-.819,1.169-.821q2.819-.005,5.638,0c.742,0,1.123.265,1.128.785C-617.831,613.752-617.837,614.809-617.837,615.865Z" transform="translate(-210.714 -79.017)"/><path class="b" d="M-730.879,643.345c0,.755,0,1.511,0,2.266,0,.513-.395.793-1.118.794q-3.26,0-6.521,0c-.738,0-1.147-.289-1.148-.809q-.005-2.266,0-4.532c0-.518.412-.81,1.149-.812q3.26,0,6.521,0c.721,0,1.114.285,1.117.8C-730.876,641.814-730.879,642.579-730.879,643.345Z" transform="translate(-126.313 -105.645)"/><path class="b" d="M-517.193,653.543c-1.065,0-2.129,0-3.194,0-.791,0-1.175-.268-1.18-.818q-.009-1.071,0-2.142c0-.557.4-.832,1.21-.833q3.194,0,6.388,0c.81,0,1.191.273,1.193.838q0,1.055,0,2.111c0,.589-.368.843-1.223.844Q-515.6,653.546-517.193,653.543Z" transform="translate(-325.04 -112.86)"/></g></g></svg>