<svg xmlns="http://www.w3.org/2000/svg" xmlns:xlink="http://www.w3.org/1999/xlink" width="36" height="36" viewBox="0 0 36 36">
  <defs>
    <clipPath id="clip-favicon">
      <rect width="36" height="36"/>
    </clipPath>
  </defs>
  <g id="favicon" clip-path="url(#clip-favicon)">
    <path id="Tracciato_8181" data-name="Tracciato 8181" d="M4.331,29.685A18.687,18.687,0,0,1,.048,19.978C-.313,13.472,1.439,8.624,5.466,5.162c2.584-2.217,5.753-2.788,8.52-1.292a6.626,6.626,0,0,1,1.569,10.585c-3.525,3.352-8.436,1.961-9.8,8.98a13.368,13.368,0,0,0,2.479,9.55A18.3,18.3,0,0,1,4.331,29.685Zm27.719-.727a18.912,18.912,0,0,1-8.1,5.889c-3.823,1.339-8.776,2.092-13.6-1.187-3.305-2.327-2.84-6.506-2.066-8.316A6.7,6.7,0,0,1,19.1,23.529c.256.256,4.336,3.614,8.368,2.735a12.442,12.442,0,0,0,8.1-7.474C36.182,23.179,32.05,28.958,32.05,28.958ZM17.443-.005a21.427,21.427,0,0,1,9.231,2.327c3.263,1.81,7.547,6.2,8.321,11.27.523,3.1-.256,6.349-3.305,8.159-4.126,2.458-10.632-.837-9.858-6.469.669-4.6.465-8.054-2.584-10.685A12.049,12.049,0,0,0,9.336,2.223C11.972.157,17.443-.005,17.443-.005Z" transform="translate(0.078 0.011)" fill="#33587f"/>
  </g>
</svg>
