<svg xmlns="http://www.w3.org/2000/svg" width="31.41" height="122.453" viewBox="0 0 31.41 122.453"><defs><style>.a{fill:#4a6894;}</style></defs><path class="a" d="M39.313,23.641q-12.883,0-17.066-4.449-3.852-4.117-3.852-16.934v-22.91a32.787,32.787,0,0,0-.83-8.633,10.335,10.335,0,0,0-3.154-4.848A9.532,9.532,0,0,0,7.9-36.523v-1.66q6.176,0,8.633-5.047,1.859-3.785,1.859-10.293V-78.691a35.54,35.54,0,0,1,1.129-9.7,12.651,12.651,0,0,1,7.7-8.832q4.051-1.594,12.086-1.594v1.66q-5.711,0-8.367,3.785T28.289-80.883v25.1q0,7.836-1.992,11.688Q23.773-39.312,17-37.32q6.973,2.059,9.363,6.773,1.926,3.719,1.926,11.887V5.977q0,12.551,5.777,15.207a13.43,13.43,0,0,0,5.246.8Z" transform="translate(-7.902 98.813)"/></svg>