<svg xmlns="http://www.w3.org/2000/svg" xmlns:xlink="http://www.w3.org/1999/xlink" width="60" height="60" viewBox="0 0 60 60">
  <defs>
    <clipPath id="clip-icon-menu-description">
      <rect width="60" height="60"/>
    </clipPath>
  </defs>
  <g id="icon-menu-description" clip-path="url(#clip-icon-menu-description)">
    <g id="Raggruppa_1332" data-name="Raggruppa 1332" transform="translate(2502.901 2.905)">
      <path id="Tracciato_8410" data-name="Tracciato 8410" d="M-2342.258,1338.059c0,.581,0,1.1,0,1.624a1.831,1.831,0,0,0,2.031,2.02c1.674,0,3.348,0,5.022,0a1.828,1.828,0,0,0,2-2c0-.523,0-1.046,0-1.62.195-.009.358-.023.522-.023q.979,0,1.958,0a1.89,1.89,0,0,1,2.083,2.086q.007,4.873,0,9.746c0,2-.026,4,.006,6a1.989,1.989,0,0,1-2.177,2.174c-4.653-.039-9.306-.015-13.959-.016a1.878,1.878,0,0,1-2.062-2.055q0-7.874,0-15.747a1.921,1.921,0,0,1,2.194-2.189C-2343.864,1338.058-2343.1,1338.059-2342.258,1338.059Zm-.9,12.7h10.856v-1.778h-10.856Zm0,3.614h9.047v-1.751h-9.047Zm0-7.253h5.409v-1.747h-5.409Z" transform="translate(-135.175 -1320.064)" fill="#b3c5df"/>
      <path id="Tracciato_8411" data-name="Tracciato 8411" d="M-2274.108,1320.957c-.723,0-1.446.005-2.168,0a.883.883,0,0,1-.974-.935q-.023-1.126,0-2.253a.869.869,0,0,1,.928-.892q2.232-.012,4.463,0a.878.878,0,0,1,.93.934q.019,1.1,0,2.21a.88.88,0,0,1-.972.935C-2272.634,1320.962-2273.371,1320.957-2274.108,1320.957Z" transform="translate(-198.817 -1300.681)" fill="#b3c5df"/>
    </g>
  </g>
</svg>
