<svg xmlns="http://www.w3.org/2000/svg" xmlns:xlink="http://www.w3.org/1999/xlink" width="60" height="60" viewBox="0 0 60 60">
  <defs>
    <clipPath id="clip-icon-menu-contacts">
      <rect width="60" height="60"/>
    </clipPath>
  </defs>
  <g id="icon-menu-contacts" clip-path="url(#clip-icon-menu-contacts)">
    <g id="Raggruppa_1301" data-name="Raggruppa 1301" transform="translate(1651.447 -990.157)">
      <path id="Tracciato_8402" data-name="Tracciato 8402" d="M-1621.372,1028.415q-4.639,0-9.279,0a2.925,2.925,0,0,1-3.167-3.14q-.008-5.127,0-10.253a2.934,2.934,0,0,1,3.143-3.121q9.256,0,18.511,0a2.883,2.883,0,0,1,2.961,2.123,3.522,3.522,0,0,1,.121,1q.013,5.15,0,10.3a2.846,2.846,0,0,1-2.416,3.04,2.635,2.635,0,0,1-.551.045Q-1616.709,1028.417-1621.372,1028.415Zm4.76-7.328h1.576c1.035,0,2.07.009,3.1,0a.88.88,0,0,0,.924-.845.869.869,0,0,0-.814-.849,3.833,3.833,0,0,0-.462-.019q-4.333,0-8.665,0a4.871,4.871,0,0,0-.6.04.749.749,0,0,0-.658.622.724.724,0,0,0,.313.85,1.55,1.55,0,0,0,.74.2C-1619.639,1021.1-1618.125,1021.087-1616.611,1021.087Zm.021-5.117c-1.528,0-3.057-.012-4.585.011a1.145,1.145,0,0,0-.791.256,1.169,1.169,0,0,0-.2.876c.083.405.474.536.87.538,1.142.006,2.285,0,3.427,0q2.895,0,5.789,0a.94.94,0,0,0,.975-.476.838.838,0,0,0-.859-1.2C-1613.5,1015.963-1615.046,1015.97-1616.59,1015.97Zm-.1,8.445h4.452c.755,0,1.208-.311,1.227-.838.02-.548-.429-.866-1.229-.867q-4.383,0-8.766,0a3.031,3.031,0,0,0-.553.042.8.8,0,0,0-.655.994c.091.442.419.663,1.025.666C-1619.686,1024.417-1618.186,1024.414-1616.687,1024.414Zm-13.539-6.251a2.361,2.361,0,0,0,2.347,2.364,2.374,2.374,0,0,0,2.366-2.348,2.348,2.348,0,0,0-2.368-2.382A2.361,2.361,0,0,0-1630.225,1018.163Zm2.363,5.938c1.1,0,2.2.009,3.292-.008a2.33,2.33,0,0,0,.592-.171,1.9,1.9,0,0,0-.2-.625,16.192,16.192,0,0,0-1.2-1.347,4.158,4.158,0,0,0-4.707-.2,1.881,1.881,0,0,0-.2.189c-.412.461-.836.912-1.224,1.392a1.972,1.972,0,0,0-.218.571,2.137,2.137,0,0,0,.584.185C-1630.058,1024.11-1628.96,1024.1-1627.863,1024.1Z" transform="translate(0 0)" fill="#b3c5df"/>
    </g>
  </g>
</svg>
