<svg id="Raggruppa_1132" data-name="Raggruppa 1132" xmlns="http://www.w3.org/2000/svg" width="20.689" height="20.611" viewBox="0 0 20.689 20.611">
  <g id="Raggruppa_1130" data-name="Raggruppa 1130">
    <path id="Tracciato_8097" data-name="Tracciato 8097" d="M57.422,0H50.077V1.237h6.467L47.88,9.869l.877.874,8.664-8.632V8.554h1.241V0Z" transform="translate(-37.974)" fill="#fff"/>
    <path id="Tracciato_8098" data-name="Tracciato 8098" d="M19.448,16.386a3,3,0,0,1-3,2.989H4.241a3,3,0,0,1-3-2.989V4.225a3,3,0,0,1,3-2.989H8.689V0H4.241A4.239,4.239,0,0,0,0,4.225V16.386a4.239,4.239,0,0,0,4.241,4.225H16.448a4.239,4.239,0,0,0,4.241-4.225V11.954H19.448Z" fill="#fff"/>
  </g>
</svg>
