<svg xmlns="http://www.w3.org/2000/svg" width="49.201" height="49.332" viewBox="0 0 49.201 49.332">
  <g id="Raggruppa_1162" data-name="Raggruppa 1162" transform="translate(1 1)">
    <path id="Tracciato_8292" data-name="Tracciato 8292" d="M50.584-655.686a23.629,23.629,0,0,0,23.632,23.676A23.635,23.635,0,0,0,97.785-655.75a23.63,23.63,0,0,0-23.715-23.593A23.636,23.636,0,0,0,50.584-655.686Z" transform="translate(-50.584 679.343)" fill="none" stroke="#125d91" stroke-width="2"/>
    <path id="Tracciato_8293" data-name="Tracciato 8293" d="M203.387-596.67c0-2.158-.006-4.316,0-6.474a1.5,1.5,0,0,1,1.429-1.631,1.505,1.505,0,0,1,1.565,1.664q.009,4.729,0,9.458c0,1.145,0,2.289,0,3.434,0,1.057-.591,1.748-1.486,1.757a1.545,1.545,0,0,1-1.51-1.734Q203.382-593.433,203.387-596.67Z" transform="translate(-181.286 617.069)" fill="#125d91"/>
    <path id="Tracciato_8294" data-name="Tracciato 8294" d="M204.891-447.081a1.515,1.515,0,0,1,1.52,1.479,1.5,1.5,0,0,1-1.446,1.489,1.506,1.506,0,0,1-1.548-1.444A1.515,1.515,0,0,1,204.891-447.081Z" transform="translate(-181.313 479.152)" fill="#125d91" stroke="#125d91" stroke-width="1"/>
  </g>
</svg>
