<svg xmlns="http://www.w3.org/2000/svg" width="21.047" height="21.221" viewBox="0 0 21.047 21.221">
  <g id="Raggruppa_1329" data-name="Raggruppa 1329" transform="translate(1849.596 -7871)">
    <g id="Raggruppa_1120" data-name="Raggruppa 1120" transform="translate(-1846.264 7871) rotate(45)">
      <path id="Tracciato_8285" data-name="Tracciato 8285" d="M-478.131,766.44q5.564,0,11.128,0c.934,0,1.5-.487,1.483-1.227A1.315,1.315,0,0,0-466.957,764c-.617-.02-1.236,0-1.855,0h-19.643c-.253,0-.506-.009-.759.007a1.3,1.3,0,0,0-1.357,1.292,1.24,1.24,0,0,0,1.4,1.145C-485.494,766.443-481.813,766.439-478.131,766.44Z" transform="translate(490.572 -763.985)" fill="#828a9d"/>
    </g>
    <g id="Raggruppa_1328" data-name="Raggruppa 1328" transform="translate(-1828.549 7872.736) rotate(135)">
      <path id="Tracciato_8285-2" data-name="Tracciato 8285" d="M12.441,0q5.564,0,11.128,0c.934,0,1.5.487,1.483,1.227a1.315,1.315,0,0,1-1.437,1.214c-.617.02-1.236,0-1.855,0H2.117c-.253,0-.506.009-.759-.007A1.3,1.3,0,0,1,0,1.151,1.24,1.24,0,0,1,1.4.006C5.078,0,8.759,0,12.441,0Z" fill="#828a9d"/>
    </g>
    <rect id="Rettangolo_138831" data-name="Rettangolo 138831" width="24" height="3" transform="translate(-1847.475 7873.129) rotate(45)" fill="#1c2332"/>
  </g>
</svg>
