<svg id="Raggruppa_1194" data-name="Raggruppa 1194" xmlns="http://www.w3.org/2000/svg" width="42.351" height="42.417" viewBox="0 0 42.351 42.417">
  <path id="Tracciato_8304" data-name="Tracciato 8304" d="M-849.679,71.675c-.568,0-1.008-.02-1.446,0-.767.042-1.076.353-1.078,1.114-.009,2.753,0,5.507-.01,8.26,0,.385.1.54.518.558.473.021.479-.218.471-.561-.016-.617.005-1.234-.008-1.851-.01-.48.113-.9.651-.922.608-.028.71.44.714.928,0,.57,0,1.139,0,1.709,0,3.086.015,6.172-.013,9.257-.005.573.168.7.717.714.616.019.623-.269.616-.725-.02-1.353,0-2.706-.009-4.059,0-.345.008-.684.392-.83.34-.129.624-.1.628.364.018,2.111.025,4.223.057,6.334,0,.257-.145.2-.257.2-.736.006-1.475.045-2.207-.014a1.524,1.524,0,0,1-1.285-1.7c-.008-2.3-.022-4.605.011-6.907.007-.531-.12-.674-.656-.659-1.111.033-1.649-.538-1.651-1.656,0-2.872,0-5.744,0-8.616a2.148,2.148,0,0,1,1.014-1.916c.752-.493,1.047-.45,1.714.142C-850.489,71.12-850.133,71.341-849.679,71.675Z" transform="translate(853.527 -49.837)" fill="#fff"/>
  <path id="Tracciato_8305" data-name="Tracciato 8305" d="M-596.957,71.472a6.993,6.993,0,0,0,1.488-1.157c.223-.28.521-.181.787-.1a2.234,2.234,0,0,1,1.622,2.245q.013,4.133,0,8.266a1.389,1.389,0,0,1-1.525,1.559c-.714-.036-.786.251-.779.844.029,2.327.015,4.655.01,6.983,0,1.305-.562,1.872-1.857,1.857-.587-.007-1.351.256-1.714-.1s-.1-1.125-.105-1.712c-.016-1.472-.008-2.945,0-4.418,0-.313-.115-.744.413-.715.42.023.592.332.591.745,0,1.069,0,2.138,0,3.207q0,.463,0,.926a.738.738,0,0,0,1.114.752c.326-.146.192-.453.193-.69.008-3.539,0-7.078.01-10.617,0-.525-.145-1.246.656-1.252.843-.006.687.736.7,1.287.01.356.012.713,0,1.069-.012.327-.04.591.452.566.4-.021.536-.141.535-.54-.012-2.636,0-5.273-.012-7.909,0-.715-.331-1.026-1.045-1.083-.236-.019-.475,0-.712,0Z" transform="translate(635.403 -49.635)" fill="#fff"/>
  <path id="Tracciato_8306" data-name="Tracciato 8306" d="M-731.118-64.982a4.292,4.292,0,0,1-4.315-4.276,4.346,4.346,0,0,1,4.381-4.3,4.357,4.357,0,0,1,4.28,4.337A4.294,4.294,0,0,1-731.118-64.982Zm2.956-4.263a2.964,2.964,0,0,0-2.943-3.006,2.959,2.959,0,0,0-2.935,2.938,2.914,2.914,0,0,0,2.9,3.019A2.917,2.917,0,0,0-728.162-69.245Z" transform="translate(752.278 73.563)" fill="#fff"/>
  <path id="Tracciato_8307" data-name="Tracciato 8307" d="M-686.424-16.915c.643-.42,1.043-.881,1.517-1.158a2.688,2.688,0,0,1,2.131-.011,3.223,3.223,0,0,1,2.307,3.3c.011,3.964-.01,7.929.019,11.893,0,.584-.262.547-.672.556-.46.01-.716,0-.711-.611.033-3.869.016-7.739.017-11.608a2.41,2.41,0,0,0-.459-1.674,1.86,1.86,0,0,0-1.495-.685C-684.59-16.913-685.411-16.915-686.424-16.915Z" transform="translate(710.26 26.183)" fill="#fff"/>
  <path id="Tracciato_8308" data-name="Tracciato 8308" d="M-759.783-16.8c-.841,0-1.59,0-2.339,0a1.928,1.928,0,0,0-2.165,2.207c-.01,3.824,0,7.648,0,11.472,0,.847-.36,1.111-1.185.905-.263-.066-.173-.247-.173-.384,0-4.2-.024-8.408.01-12.612a3.3,3.3,0,0,1,2.843-2.918C-761.479-18.343-760.727-17.555-759.783-16.8Z" transform="translate(778.197 26.063)" fill="#fff"/>
  <path id="Tracciato_8309" data-name="Tracciato 8309" d="M-725.115,21.112a3.373,3.373,0,0,1-3.355-3.273,3.388,3.388,0,0,1,3.281-3.357A3.388,3.388,0,0,1-721.8,17.8,3.376,3.376,0,0,1-725.115,21.112Zm1.937-3.33a1.94,1.94,0,0,0-1.94-1.943,1.949,1.949,0,0,0-1.974,1.983,1.931,1.931,0,0,0,2.016,1.933A1.923,1.923,0,0,0-723.179,17.782Z" transform="translate(746.309 -1.924)" fill="#fff"/>
  <path id="Tracciato_8310" data-name="Tracciato 8310" d="M-783.924,105.821a3.342,3.342,0,0,1,3.321-3.3,3.362,3.362,0,0,1,3.293,3.4,3.359,3.359,0,0,1-3.357,3.258A3.353,3.353,0,0,1-783.924,105.821Zm3.325-1.915a1.926,1.926,0,0,0-1.985,1.963,1.958,1.958,0,0,0,1.945,1.947,2.022,2.022,0,0,0,2.013-1.981A1.985,1.985,0,0,0-780.6,103.907Z" transform="translate(793.854 -77.406)" fill="#fff"/>
  <path id="Tracciato_8311" data-name="Tracciato 8311" d="M-666,105.856a3.326,3.326,0,0,1-3.306,3.3,3.346,3.346,0,0,1-3.3-3.39,3.365,3.365,0,0,1,3.348-3.272A3.323,3.323,0,0,1-666,105.856Zm-1.326-.05a1.925,1.925,0,0,0-1.955-1.922,1.983,1.983,0,0,0-2,1.969,2.017,2.017,0,0,0,1.981,1.938A1.957,1.957,0,0,0-667.325,105.806Z" transform="translate(698.407 -77.383)" fill="#fff"/>
  <path id="Tracciato_8312" data-name="Tracciato 8312" d="M-829.136-70.615a2.966,2.966,0,0,1-2.928,3.027,3.046,3.046,0,0,1-3.026-2.966,3,3,0,0,1,2.966-3.009A2.915,2.915,0,0,1-829.136-70.615Zm-2.991,1.663a1.638,1.638,0,0,0,1.678-1.64,1.689,1.689,0,0,0-1.617-1.652,1.661,1.661,0,0,0-1.661,1.592A1.616,1.616,0,0,0-832.126-68.952Z" transform="translate(837.722 73.563)" fill="#fff"/>
  <path id="Tracciato_8313" data-name="Tracciato 8313" d="M-613.877-73.562a2.994,2.994,0,0,1,3.024,2.949,3.048,3.048,0,0,1-2.966,3.025,2.967,2.967,0,0,1-2.988-2.969A2.913,2.913,0,0,1-613.877-73.562Zm1.661,2.993a1.658,1.658,0,0,0-1.65-1.676,1.693,1.693,0,0,0-1.628,1.643,1.633,1.633,0,0,0,1.666,1.652A1.612,1.612,0,0,0-612.216-70.569Z" transform="translate(650.572 73.562)" fill="#fff"/>
  <path id="Tracciato_8314" data-name="Tracciato 8314" d="M-829.139,33.763a2.912,2.912,0,0,1-2.967,2.966,2.993,2.993,0,0,1-2.989-2.983,3,3,0,0,1,3-2.972A2.933,2.933,0,0,1-829.139,33.763Zm-2.948-1.633a1.587,1.587,0,0,0-1.644,1.581,1.635,1.635,0,0,0,1.624,1.695,1.671,1.671,0,0,0,1.656-1.677A1.6,1.6,0,0,0-832.087,32.13Z" transform="translate(837.726 -15.892)" fill="#fff"/>
  <path id="Tracciato_8315" data-name="Tracciato 8315" d="M-616.806,33.785a2.928,2.928,0,0,1,2.927-3.013,2.993,2.993,0,0,1,3.02,2.95,2.98,2.98,0,0,1-2.958,3A2.906,2.906,0,0,1-616.806,33.785Zm2.942-1.656a1.6,1.6,0,0,0-1.63,1.6,1.67,1.67,0,0,0,1.661,1.671,1.635,1.635,0,0,0,1.619-1.63A1.592,1.592,0,0,0-613.864,32.128Z" transform="translate(650.571 -15.891)" fill="#fff"/>
  <path id="Tracciato_8316" data-name="Tracciato 8316" d="M-631.886-32.6c-.462,0-.924,0-1.387,0a.874.874,0,0,0-1,.945c-.015,2.584-.048,5.169.03,7.75a3.79,3.79,0,0,1,.068,1.341c-.122.412-.273.411-.6.282a1.231,1.231,0,0,1-.832-1.206c-.018-2.8-.026-5.594.006-8.391a2.141,2.141,0,0,1,1.589-1.972.769.769,0,0,1,.99.276A7.5,7.5,0,0,0-631.886-32.6Z" transform="translate(666.7 39.57)" fill="#fff"/>
  <path id="Tracciato_8317" data-name="Tracciato 8317" d="M-849.684-32.592c-.6,0-1.062,0-1.525,0a.873.873,0,0,0-1,.945c.045,3.009-.143,6.02.091,9.028a5.462,5.462,0,0,1-.1.988c-.037.338-.293.211-.427.154a1.327,1.327,0,0,1-.878-1.263c-.013-3.064-.024-6.127.008-9.191a2.142,2.142,0,0,1,1.711-1.943.664.664,0,0,1,.8.257C-850.712-33.187-850.2-33-849.684-32.592Z" transform="translate(853.541 39.567)" fill="#fff"/>
  <path id="Tracciato_8318" data-name="Tracciato 8318" d="M-687.768,145.633c-2.191.095-2.191.095-2.191,2.145v6.409c0,.143,0,.285,0,.427.02.487-.157.9-.671.916-.536.021-.7-.4-.7-.879q0-.677,0-1.353c0-2.136-.008-4.273,0-6.409a2.4,2.4,0,0,1,1.7-2.506c.2-.064.415-.186.578.043A7.09,7.09,0,0,0-687.768,145.633Z" transform="translate(714.467 -113.22)" fill="#fff"/>
  <path id="Tracciato_8319" data-name="Tracciato 8319" d="M-800.7-32.741a11.575,11.575,0,0,0,1.255-1.123c.274-.351.615-.2.912-.105a2.176,2.176,0,0,1,1.551,2.082c.025,2.824.013,5.648,0,8.472a1.608,1.608,0,0,1-.135.617c-.2.465-.591.9-1.06.777-.383-.1-.272-.714-.241-1.084.248-2.888.05-5.78.095-8.669.01-.649-.382-.987-1.054-.97C-799.818-32.731-800.26-32.741-800.7-32.741Z" transform="translate(808.239 39.714)" fill="#fff"/>
  <path id="Tracciato_8320" data-name="Tracciato 8320" d="M-743.577,145.636a11.639,11.639,0,0,0,1.29-1.274c.125-.189.343-.068.521-.011a2.428,2.428,0,0,1,1.709,2.438c.027,2.609.008,5.218.009,7.827,0,.483-.171.9-.7.887s-.675-.423-.674-.907q.008-3.629,0-7.258c0-1.544-.153-1.7-1.713-1.7Z" transform="translate(759.261 -113.192)" fill="#fff"/>
  <path id="Tracciato_8321" data-name="Tracciato 8321" d="M-584.214-32.743a5.494,5.494,0,0,0,1.474-1.12c.273-.354.614-.2.91-.109A2.156,2.156,0,0,1-580.3-31.8c.023,2.773.015,5.546,0,8.32a1.484,1.484,0,0,1-1.015,1.475c-.3.121-.4.073-.426-.274-.044-.574.145-1.118.144-1.683q0-3.7,0-7.4c0-1.133-.244-1.376-1.367-1.379Z" transform="translate(622.628 39.716)" fill="#fff"/>
  <path id="Tracciato_8322" data-name="Tracciato 8322" d="M-799.04,145.871c-.419,0-.694-.009-.969,0-.891.034-1.224.373-1.227,1.279-.007,2.35,0,4.7,0,7.05,0,.166-.006.333,0,.5.021.506-.026,1.043-.663,1.036-.621-.007-.669-.529-.667-1.043.011-2.587,0-5.175.007-7.762a2.337,2.337,0,0,1,1.63-2.329.592.592,0,0,1,.79.2A12.669,12.669,0,0,0-799.04,145.871Z" transform="translate(809.838 -113.426)" fill="#fff"/>
  <path id="Tracciato_8323" data-name="Tracciato 8323" d="M-631.338,145.739c.365-.444.78-.759,1.08-1.186.188-.267.4-.164.63-.086a2.346,2.346,0,0,1,1.664,2.24c.022,2.683,0,5.366.013,8.049,0,.474-.185.834-.653.853-.544.022-.68-.392-.679-.877.006-2.422,0-4.844,0-7.265,0-1.5-.213-1.712-1.72-1.726C-631.112,145.738-631.225,145.739-631.338,145.739Z" transform="translate(663.031 -113.296)" fill="#fff"/>
  <path id="Tracciato_8324" data-name="Tracciato 8324" d="M-743.364,57.868c-.068.036-.1.07-.143.072-1.934.116-1.934.116-1.934,2.074q0,1.528,0,3.056a.927.927,0,0,1-.04.169c-.369-.254-.716-.521-1.091-.74-.225-.131-.175-.315-.176-.491,0-1.066,0-2.132.008-3.2a2.134,2.134,0,0,1,.88-1.7c.759-.6,1.1-.575,1.779.1C-743.866,57.429-743.63,57.627-743.364,57.868Z" transform="translate(761.985 -38.105)" fill="#fff"/>
  <path id="Tracciato_8325" data-name="Tracciato 8325" d="M-685.83,63.04c0-1.291,0-2.491,0-3.69,0-1.352-.241-1.59-1.616-1.6-.141,0-.281,0-.585,0a5.745,5.745,0,0,0,1.2-1.118.461.461,0,0,1,.565-.144,2.293,2.293,0,0,1,1.724,2.091c.037,1.087.006,2.176.026,3.264a.536.536,0,0,1-.335.543C-685.153,62.554-685.433,62.772-685.83,63.04Z" transform="translate(711.637 -37.908)" fill="#fff"/>
  <path id="Tracciato_8326" data-name="Tracciato 8326" d="M-799.372,74.795c0-.7,0-1.367,0-2.031,0-.942-.271-1.2-1.238-1.2-.374,0-.749,0-1.295,0a7.075,7.075,0,0,0,1.485-1.16c.2-.247.475-.166.725-.1a2.3,2.3,0,0,1,1.682,1.986c0,.024,0,.048,0,.071A1.889,1.889,0,0,1-799.372,74.795Z" transform="translate(809.271 -49.722)" fill="#fff"/>
  <path id="Tracciato_8327" data-name="Tracciato 8327" d="M-632.739,71.608c-.416,0-.831-.005-1.247,0-.818.012-1.113.3-1.121,1.106-.007.7,0,1.407,0,2.184-.44-.29-.807-.529-1.169-.775a.518.518,0,0,1-.188-.2,2.907,2.907,0,0,1,1.655-3.564c.28-.081.553-.146.778.128A9.354,9.354,0,0,0-632.739,71.608Z" transform="translate(667.562 -49.771)" fill="#fff"/>
</svg>
