<svg xmlns="http://www.w3.org/2000/svg" width="25.063" height="15.509" viewBox="0 0 25.063 15.509">
  <g id="Raggruppa_1121" data-name="Raggruppa 1121" transform="translate(-273 -161)">
    <g id="Raggruppa_1120" data-name="Raggruppa 1120" transform="translate(273 161)">
      <path id="Tracciato_8285" data-name="Tracciato 8285" d="M-478.131,766.44q5.564,0,11.128,0c.934,0,1.5-.487,1.483-1.227A1.315,1.315,0,0,0-466.957,764c-.617-.02-1.236,0-1.855,0h-19.643c-.253,0-.506-.009-.759.007a1.3,1.3,0,0,0-1.357,1.292,1.24,1.24,0,0,0,1.4,1.145C-485.494,766.443-481.813,766.439-478.131,766.44Zm2.533,6.567h4.471c1.265,0,2.531,0,3.8,0,1.182,0,1.844-.473,1.822-1.287-.021-.782-.673-1.237-1.78-1.243h-.084q-8.183,0-16.366,0a2.4,2.4,0,0,0-1.149.2,1.121,1.121,0,0,0-.653,1.092,1.149,1.149,0,0,0,.768,1.1,2.675,2.675,0,0,0,.992.144Q-479.69,773-475.6,773.006Zm2.381,4.035c-2.108,0-4.216-.006-6.324,0-1.011,0-1.464.389-1.465,1.205s.458,1.232,1.458,1.235q6.24.019,12.48,0c.965,0,1.576-.53,1.549-1.271s-.577-1.169-1.542-1.172C-469.114,777.037-471.166,777.042-473.218,777.042Z" transform="translate(490.572 -763.985)" fill="#828a9d"/>
    </g>
  </g>
</svg>
