<svg xmlns="http://www.w3.org/2000/svg" xmlns:xlink="http://www.w3.org/1999/xlink" width="60" height="60" viewBox="0 0 60 60">
  <defs>
    <clipPath id="clip-icon-menu-process_1">
      <rect width="60" height="60"/>
    </clipPath>
  </defs>
  <g id="icon-menu-process_1" data-name="icon-menu-process – 1" clip-path="url(#clip-icon-menu-process_1)">
    <g id="Raggruppa_1333" data-name="Raggruppa 1333" transform="translate(2502.5 -56.948)">
      <path id="Tracciato_8413" data-name="Tracciato 8413" d="M-2679.871,643.083c1.462.72,2.048,1.671,1.76,2.839a2.366,2.366,0,0,1-2.366,1.877,2.372,2.372,0,0,1-2.3-1.871,2.38,2.38,0,0,1,1.768-2.833c0-.944.007-1.894-.01-2.844a.408.408,0,0,0-.235-.272,2.355,2.355,0,0,1-.766-4,6.269,6.269,0,0,1,.788-.468.461.461,0,0,0,.214-.29c.016-.938.01-1.877.01-2.839a2.194,2.194,0,0,1-1.61-1.378,3.1,3.1,0,0,1-.13-1.493,2.278,2.278,0,0,1,2.358-1.817,2.391,2.391,0,0,1,2.283,1.981,2.414,2.414,0,0,1-1.761,2.718c0,.955-.007,1.917.011,2.879,0,.09.151.218.258.259a2.351,2.351,0,0,1,.844,3.883,6.381,6.381,0,0,1-.89.572.469.469,0,0,0-.214.29C-2679.877,641.214-2679.871,642.152-2679.871,643.083Z" transform="translate(201.251 -550.792)" fill="#fff"/>
      <path id="Tracciato_8414" data-name="Tracciato 8414" d="M-2583.277,632.28c-1.284,0-2.568.006-3.852-.007a.956.956,0,0,1-.522-.162c-.8-.579-1.582-1.177-2.366-1.773-.4-.305-.4-.562.014-.874.756-.576,1.507-1.158,2.276-1.716a1.074,1.074,0,0,1,.584-.2c2.58-.013,5.16-.011,7.74-.007.492,0,.649.171.65.677q0,1.712,0,3.424c0,.482-.159.641-.635.642Z" transform="translate(115.334 -550.645)" fill="#fff"/>
      <path id="Tracciato_8415" data-name="Tracciato 8415" d="M-2583.284,738.28c-1.284,0-2.568.006-3.852-.007a.955.955,0,0,1-.521-.166c-.8-.579-1.582-1.177-2.366-1.774-.387-.295-.388-.558,0-.851.776-.589,1.55-1.18,2.34-1.749a1.076,1.076,0,0,1,.586-.189c2.544-.012,5.088-.009,7.633-.008.568,0,.712.15.713.722q0,1.694,0,3.388c0,.478-.161.633-.644.633Z" transform="translate(115.334 -649.08)" fill="#fff"/>
      <path id="Tracciato_8416" data-name="Tracciato 8416" d="M-2583.285,847.643c-1.273,0-2.545.009-3.818-.009a1.146,1.146,0,0,1-.613-.206c-.792-.567-1.566-1.159-2.344-1.746-.344-.26-.345-.545,0-.81.795-.6,1.591-1.2,2.4-1.792a.888.888,0,0,1,.487-.16q3.924-.015,7.849-.006c.4,0,.56.158.562.565q.008,1.8,0,3.6c0,.4-.168.557-.567.558Q-2581.305,847.646-2583.285,847.643Z" transform="translate(115.337 -750.654)" fill="#fff"/>
    </g>
  </g>
</svg>
