<svg xmlns="http://www.w3.org/2000/svg" xmlns:xlink="http://www.w3.org/1999/xlink" width="60" height="60" viewBox="0 0 60 60">
  <defs>
    <clipPath id="clip-icon-menu-map_1">
      <rect width="60" height="60"/>
    </clipPath>
  </defs>
  <g id="icon-menu-map_1" data-name="icon-menu-map – 1" clip-path="url(#clip-icon-menu-map_1)">
    <g id="Raggruppa_1331" data-name="Raggruppa 1331" transform="translate(2502.5 60.495)">
      <path id="Tracciato_8397" data-name="Tracciato 8397" d="M-1556.884,628.019a4.553,4.553,0,0,1-.745,2.552q-1.653,2.583-3.323,5.154c-.46.711-.969.711-1.427,0q-1.677-2.593-3.347-5.191a4.738,4.738,0,0,1,.868-6.157,4.8,4.8,0,0,1,6.231-.094A4.729,4.729,0,0,1-1556.884,628.019Zm-4.746-2.393a2.36,2.36,0,0,0-2.4,2.258,2.391,2.391,0,0,0,2.315,2.449,2.382,2.382,0,0,0,2.395-2.318A2.342,2.342,0,0,0-1561.63,625.626Z" transform="translate(-905.339 -665.001)" fill="#fff"/>
      <path id="Tracciato_8398" data-name="Tracciato 8398" d="M-1638.254,745.647l-5.409-1.682c.63-3.8,1.256-7.565,1.891-11.394.781.35,1.5.673,2.226,1,.423.191,1,.281,1.219.61s.072.9.072,1.362q0,4.795,0,9.589Z" transform="translate(-834.898 -764.842)" fill="#fff"/>
      <path id="Tracciato_8399" data-name="Tracciato 8399" d="M-1565.264,743c.588.909,1.146,1.79,1.725,2.657a2.522,2.522,0,0,0,.6.673.968.968,0,0,1,.476.7c.321,2.091.67,4.177,1.009,6.264.009.056.011.112.021.218l-5.359,1.671v-.508c0-3.515.007-7.03-.01-10.545a.569.569,0,0,1,.425-.637C-1566.009,743.357-1565.661,743.176-1565.264,743Z" transform="translate(-905.057 -774.358)" fill="#fff"/>
      <path id="Tracciato_8400" data-name="Tracciato 8400" d="M-1707.811,734.244c-.142.879-.272,1.691-.4,2.5-.452,2.759-.91,5.516-1.351,8.276a.6.6,0,0,1-.476.563c-1.248.37-2.485.78-3.734,1.145a.819.819,0,0,1-.664-.079c-.115-.1-.109-.436-.046-.631q1.612-4.975,3.261-9.937a.768.768,0,0,1,.309-.436C-1709.911,735.171-1708.891,734.727-1707.811,734.244Z" transform="translate(-770.21 -766.37)" fill="#fff"/>
      <path id="Tracciato_8401" data-name="Tracciato 8401" d="M-1500.041,748.456a2.969,2.969,0,0,1,.423.61q1.655,4.966,3.276,9.944a.744.744,0,0,1-.07.629.756.756,0,0,1-.628.071c-1.278-.375-2.545-.789-3.821-1.172a.516.516,0,0,1-.4-.487c-.336-2.09-.687-4.177-1.013-6.268a.714.714,0,0,1,.19-.451c.183-.238.431-.429.6-.675C-1501.016,749.977-1500.576,749.278-1500.041,748.456Z" transform="translate(-963.952 -779.342)" fill="#fff"/>
    </g>
  </g>
</svg>
