<?xml version="1.0" encoding="utf-8"?>
<!-- Generator: Adobe Illustrator 25.3.1, SVG Export Plug-In . SVG Version: 6.00 Build 0)  -->
<svg version="1.1" id="Livello_1" xmlns="http://www.w3.org/2000/svg" xmlns:xlink="http://www.w3.org/1999/xlink" x="0px" y="0px"
	 viewBox="0 0 60 60" style="enable-background:new 0 0 60 60;" xml:space="preserve">
<style type="text/css">
	.st0{fill:#B3C5DF;}
</style>
<g>
	<path class="st0" d="M38.6,41.1C38.3,41.1,38.9,41.1,38.6,41.1c-0.1,0,0-0.1,0-0.1c-0.2-0.3-1.5-0.5-1.7-0.8
		c-0.5-0.6-0.6-1.3-0.4-2.1c0.1-0.4,0.2-0.8,0.4-1.2c-5,0-10,0-15,0c0-0.1,0-0.2,0-0.3c0-4.8,0-9.7,0-14.5c0-1.2,0.8-2,2-2
		c5.1,0,10.1,0,15.2,0c0.1,0,0.1,0,0.2,0c-0.1,0.1-0.1,0.2-0.1,0.2c-0.4,0.5-0.5,1.1-0.5,1.7c0,6.3,0,12.5,0,18.8
		C38.6,40.8,38.6,40.9,38.6,41.1z M30.4,30.5c-1,0-2.1,0-3.1,0c-1,0-2,0-2.9,0c-0.2,0-0.4,0.1-0.5,0.4c-0.3,0.7,0,1.4,0.6,1.4
		c3.9,0,7.9,0,11.8,0c0.7,0,0.8-0.2,0.8-1.1c0-0.4-0.2-0.6-0.5-0.7c-0.3,0-0.5,0-0.8,0C33.9,30.5,32.2,30.5,30.4,30.5z M28.9,25.7
		c1.5,0,3.1,0,4.6,0c0.2,0,0.5-0.1,0.5-0.3c0.1-0.4,0.1-0.8,0-1.2C34,23.9,33.7,24,33.4,24c-2.1,0-4.3,0-6.4,0c-0.9,0-1.8,0-2.8,0
		c-0.2,0-0.5,0.1-0.5,0.3c-0.1,0.4-0.1,0.8,0,1.2c0.1,0.3,0.3,0.3,0.6,0.3C25.9,25.7,27.4,25.7,28.9,25.7z M28.9,27.3
		c-0.3,0-0.6,0-0.9,0c-1.2,0-2.5,0-3.7,0c-0.4,0-0.6,0.2-0.6,0.8c0,0.1,0,0.2,0,0.3c0,0.5,0.2,0.7,0.5,0.7c0.4,0,0.9,0,1.3,0
		c2.6,0,5.3,0,7.9,0c0.2,0,0.5-0.1,0.5-0.2c0.1-0.4,0.1-0.8,0.1-1.2c0-0.4-0.3-0.4-0.6-0.4C32,27.3,30.4,27.3,28.9,27.3z"/>
	<path class="st0" d="M18.2,38.6c5.5,0,10.9,0,16.4,0c-0.3,1.3,0,2.4,1,3.4c-0.1,0-0.2,0-0.3,0c-4.7,0-9.4,0-14,0
		c-1.3,0-2.3-0.8-2.7-2C18.5,39.5,18.4,39.1,18.2,38.6z"/>
	<path class="st0" d="M40.2,22.9c-0.2-1,0.3-1.9,1.3-2.2c0.8-0.3,1.8,0.1,2.1,1c0.1,0.3,0.1,0.7,0.2,1.1c0,0-0.1,0.1-0.1,0.1
		C42.5,22.9,41.4,22.9,40.2,22.9z"/>
</g>
</svg>
