<svg xmlns="http://www.w3.org/2000/svg" xmlns:xlink="http://www.w3.org/1999/xlink" width="60" height="60" viewBox="0 0 60 60">
  <defs>
    <clipPath id="clip-Tavola_da_disegno_1">
      <rect width="60" height="60"/>
    </clipPath>
  </defs>
  <g id="Tavola_da_disegno_1" data-name="Tavola da disegno – 1" clip-path="url(#clip-Tavola_da_disegno_1)">
    <g id="Raggruppa_1329" data-name="Raggruppa 1329" transform="translate(2002.461 -1089.006)">
      <path id="Tracciato_8403" data-name="Tracciato 8403" d="M-1935.464,1127.481a3.844,3.844,0,0,0,.768-2.711c-.013-4.732-.006-9.465-.006-14.2v-.566h17.774c.01.152.028.3.028.444q0,7.329,0,14.658c0,1.2-.438,1.952-1.329,2.233a3.686,3.686,0,0,1-1.086.159q-7.859.015-15.718.006C-1935.138,1127.506-1935.243,1127.494-1935.464,1127.481Zm3.8-10.392h4.347v-3.81h-4.347Zm5.894,4.11c1.891,0,3.782,0,5.673,0,.377,0,.686-.074.714-.523.023-.367-.239-.576-.721-.584-.461-.007-.922,0-1.384,0h-9.685c-.123,0-.246,0-.369,0-.423.021-.714.26-.675.588.046.391.3.522.682.521C-1929.61,1121.195-1927.688,1121.2-1925.766,1121.2Zm-.026,3.574h5.528a1.882,1.882,0,0,0,.412-.021c.3-.069.55-.259.448-.575-.064-.2-.316-.345-.5-.49-.058-.045-.179-.01-.271-.01h-11.241c-.092,0-.213-.034-.271.011-.188.147-.449.3-.505.494-.085.3.154.509.461.57a2.391,2.391,0,0,0,.459.02Zm3.691-10.964h2.069c.367,0,.645-.132.646-.544s-.3-.546-.65-.548q-2.046-.012-4.092,0c-.368,0-.7.12-.7.552s.328.542.7.542Q-1923.112,1113.808-1922.1,1113.81Zm.005,3.826q1.036,0,2.072,0c.37,0,.646-.125.643-.544s-.288-.53-.654-.529c-1.366,0-2.732,0-4.1,0-.45,0-.728.214-.7.541.034.437.336.534.714.53C-1923.446,1117.631-1922.771,1117.636-1922.1,1117.635Z" transform="translate(-43.57 0)" fill="#b3c5df"/>
      <path id="Tracciato_8404" data-name="Tracciato 8404" d="M-1983.461,1145.418h4.049c.012.115.031.217.031.318,0,3.916.008,7.832,0,11.748a2.022,2.022,0,0,1-2.7,2.046,1.97,1.97,0,0,1-1.37-1.78c-.011-.184-.011-.368-.011-.552q0-5.6,0-11.195Z" transform="translate(0 -32.145)" fill="#b3c5df"/>
    </g>
  </g>
</svg>
