<svg xmlns="http://www.w3.org/2000/svg" xmlns:xlink="http://www.w3.org/1999/xlink" width="60" height="60" viewBox="0 0 60 60">
  <defs>
    <clipPath id="clip-icon-menu-schedule_1">
      <rect width="60" height="60"/>
    </clipPath>
  </defs>
  <g id="icon-menu-schedule_1" data-name="icon-menu-schedule – 1" clip-path="url(#clip-icon-menu-schedule_1)">
    <g id="Raggruppa_1334" data-name="Raggruppa 1334" transform="translate(2502.068 -122.641)">
      <g id="Raggruppa_1041" data-name="Raggruppa 1041" transform="translate(-2483 141.933)">
        <path id="Tracciato_8264" data-name="Tracciato 8264" d="M-1508.684-503.759q0,3.371,0,6.742a3.043,3.043,0,0,1-1.711,2.934,3.022,3.022,0,0,1-1.412.3c-3.922,0-7.844.007-11.766-.005a2.959,2.959,0,0,1-3.1-3.145c0-.375-.116-.456-.458-.433-.37.025-.743-.02-1.115-.015a2.408,2.408,0,0,1-2.2-3.127q1.2-4.416,2.4-8.832a11.285,11.285,0,0,1,.739-2.41,3.617,3.617,0,0,1,3.456-2.037c.228,0,.537-.075.664.041.148.136-.062.411-.093.63a1.575,1.575,0,0,0,.51,1.591,1.669,1.669,0,0,0,1.746.2,2.2,2.2,0,0,0,1.344-1.51c.27-.956.277-.954,1.28-.954.6,0,1.2.007,1.8,0,.232,0,.332.048.209.285a.205.205,0,0,0-.012.041c-.277,1.046-.024,1.785.732,2.131a2.016,2.016,0,0,0,2.418-.76,3.665,3.665,0,0,0,.517-1.352c.06-.289.2-.348.467-.349a3.543,3.543,0,0,1,2.393.618,3.159,3.159,0,0,1,1.187,2.591Q-1508.687-507.173-1508.684-503.759Zm-10.521-5.089c-2.262,0-4.524,0-6.787-.006-.257,0-.367.064-.434.327-.3,1.178-.621,2.349-.934,3.523q-.65,2.439-1.3,4.879c-.164.621.057.928.694.99.114.011.229,0,.344,0h11.253a2.008,2.008,0,0,0,2.177-1.663c.678-2.554,1.347-5.111,2.035-7.663.088-.327.041-.4-.308-.4C-1514.71-508.84-1516.958-508.848-1519.206-508.848Zm8.71,1.353-.036-.019c-.042.146-.087.291-.126.437-.6,2.231-1.207,4.459-1.8,6.693a3.993,3.993,0,0,1-1.117,1.986,3.835,3.835,0,0,1-2.729,1.041q-4.08-.016-8.158,0c-.135,0-.349-.125-.382.181a1.273,1.273,0,0,0,1.357,1.588q5.8-.042,11.593,0a1.3,1.3,0,0,0,1.406-1.39C-1510.507-500.482-1510.5-503.988-1510.5-507.495Z" transform="translate(1530.547 515.202)" fill="#fff"/>
        <path id="Tracciato_8265" data-name="Tracciato 8265" d="M-1357.409-526.741a.716.716,0,0,1-.739-.879,14.342,14.342,0,0,1,.435-1.514,1.132,1.132,0,0,1,.456-.552,1,1,0,0,1,1.155-.111c.373.28.327.66.222,1.047-.1.37-.182.746-.306,1.108A1.3,1.3,0,0,1-1357.409-526.741Z" transform="translate(1372.986 529.939)" fill="#fff"/>
        <path id="Tracciato_8266" data-name="Tracciato 8266" d="M-1434.673-529.105a6.989,6.989,0,0,1-.464,1.628,1.188,1.188,0,0,1-1.021.682.726.726,0,0,1-.82-.915c.1-.458.226-.912.369-1.359a1.3,1.3,0,0,1,1.01-.892C-1435.07-530.085-1434.661-529.738-1434.673-529.105Z" transform="translate(1445.043 529.986)" fill="#fff"/>
        <path id="Tracciato_8267" data-name="Tracciato 8267" d="M-1468.8-429.547c-.3,0-.6,0-.9,0-.256,0-.376-.095-.3-.368q.185-.657.354-1.319a.473.473,0,0,1,.525-.394c.614.008,1.229.007,1.843,0,.319,0,.4.124.3.427-.124.393-.219.8-.313,1.2a.532.532,0,0,1-.613.458C-1468.2-429.557-1468.5-429.547-1468.8-429.547Z" transform="translate(1475.223 440.084)" fill="#fff"/>
        <path id="Tracciato_8268" data-name="Tracciato 8268" d="M-1425.133-429.536c-.3,0-.6-.007-.9,0s-.432-.084-.34-.4c.125-.437.234-.878.349-1.317a.438.438,0,0,1,.465-.359c.643,0,1.286,0,1.928,0,.28,0,.347.122.275.379-.126.451-.236.907-.357,1.359a.441.441,0,0,1-.478.342Z" transform="translate(1435.355 440.074)" fill="#fff"/>
        <path id="Tracciato_8269" data-name="Tracciato 8269" d="M-1434.684-393.26c.314,0,.629.012.943,0,.292-.015.345.118.279.365-.12.454-.231.91-.357,1.362a.434.434,0,0,1-.438.343c-.657.006-1.314,0-1.971,0-.25,0-.323-.124-.258-.362.128-.466.24-.937.365-1.4a.378.378,0,0,1,.408-.3C-1435.37-393.256-1435.027-393.259-1434.684-393.26Z" transform="translate(1444.594 405.02)" fill="#fff"/>
        <path id="Tracciato_8270" data-name="Tracciato 8270" d="M-1390.98-393.264c.329,0,.658.008.986,0,.231-.008.322.086.266.308-.123.482-.244.965-.382,1.444a.454.454,0,0,1-.5.322c-.615,0-1.23,0-1.845,0-.258,0-.414-.062-.312-.383.133-.42.236-.85.336-1.279a.467.467,0,0,1,.547-.411C-1391.582-393.251-1391.281-393.264-1390.98-393.264Z" transform="translate(1404.639 405.024)" fill="#fff"/>
        <path id="Tracciato_8271" data-name="Tracciato 8271" d="M-1380.5-431.192c.329,0,.658,0,.986,0,.229,0,.354.057.273.329-.134.45-.253.9-.363,1.361a.446.446,0,0,1-.488.38c-.629,0-1.258-.006-1.887,0-.278,0-.362-.123-.3-.373.122-.468.245-.936.374-1.4a.383.383,0,0,1,.415-.3C-1381.161-431.189-1380.833-431.191-1380.5-431.192Z" transform="translate(1395.045 439.686)" fill="#fff"/>
        <path id="Tracciato_8272" data-name="Tracciato 8272" d="M-1478.525-393.228c.343,0,.686,0,1.028,0,.207,0,.286.084.23.293-.128.48-.243.964-.378,1.443a.434.434,0,0,1-.446.332c-.643,0-1.286,0-1.928,0-.281,0-.347-.137-.282-.383.119-.453.233-.908.356-1.36a.4.4,0,0,1,.434-.329C-1479.182-393.222-1478.853-393.228-1478.525-393.228Z" transform="translate(1484.642 404.988)" fill="#fff"/>
      </g>
    </g>
  </g>
</svg>
