<svg xmlns="http://www.w3.org/2000/svg" xmlns:xlink="http://www.w3.org/1999/xlink" width="60" height="60" viewBox="0 0 60 60">
  <defs>
    <clipPath id="clip-icon-menu-opinion_1">
      <rect width="60" height="60"/>
    </clipPath>
  </defs>
  <g id="icon-menu-opinion_1" data-name="icon-menu-opinion – 1" clip-path="url(#clip-icon-menu-opinion_1)">
    <g id="Raggruppa_1044" data-name="Raggruppa 1044" transform="translate(18.688 20.128)">
      <path id="Tracciato_8279" data-name="Tracciato 8279" d="M-2196.026,107.24a29.331,29.331,0,0,1,3.137.018,6.208,6.208,0,0,1,5.467,4.883,6.771,6.771,0,0,1-3.919,7.985,7.97,7.97,0,0,1-3.145.342,1.033,1.033,0,0,0-.874.372c-.869.943-1.77,1.857-2.65,2.79a.972.972,0,0,1-1.157.371,1,1,0,0,1-.565-1.083c.014-.725-.009-1.452.013-2.177.008-.27-.081-.365-.336-.438a6.466,6.466,0,0,1-4.722-5.811,6.77,6.77,0,0,1,3.449-6.6,5.8,5.8,0,0,1,2.67-.67c.878-.01,1.756,0,2.633,0Zm0,5.5h2.021c.724,0,1.448,0,2.173,0,.307,0,.524-.135.523-.48,0-.322-.214-.431-.495-.457-.083-.008-.168,0-.252,0h-5.305c-.892,0-1.785,0-2.677,0-.351,0-.743-.006-.749.457-.007.5.4.5.771.488h3.992Zm-1.742,2.442v0c-.81,0-1.62.009-2.43,0-.334-.005-.6.089-.594.451,0,.346.243.478.584.477q2.43-.01,4.859,0c.326,0,.583-.087.591-.462s-.257-.466-.581-.465C-2196.151,115.184-2196.961,115.181-2197.771,115.181Z" transform="translate(2204.809 -107.204)" fill="#fff"/>
      <path id="Tracciato_8280" data-name="Tracciato 8280" d="M-2103.528,185.665a7.335,7.335,0,0,0,7.3-6.746c.055-.454.179-.46.543-.354a5.018,5.018,0,0,1,3.394,5.455,4.761,4.761,0,0,1-3.434,4.184.34.34,0,0,0-.273.4c.011.523,0,1.046,0,1.569a.757.757,0,0,1-.5.794.748.748,0,0,1-.867-.234c-.515-.535-1.064-1.042-1.529-1.618a1.894,1.894,0,0,0-1.731-.752,4.247,4.247,0,0,1-3.493-1.52c-.261-.293-.706-.625-.573-.987.155-.421.695-.112,1.056-.19A.5.5,0,0,1-2103.528,185.665Z" transform="translate(2114.858 -171.28)" fill="#fff"/>
    </g>
  </g>
</svg>
