<svg xmlns="http://www.w3.org/2000/svg" xmlns:xlink="http://www.w3.org/1999/xlink" width="204" height="28" viewBox="0 0 204 28">
  <defs>
    <clipPath id="clip-Tavola_da_disegno_1">
      <rect width="204" height="28"/>
    </clipPath>
  </defs>
  <g id="Tavola_da_disegno_1" data-name="Tavola da disegno – 1" clip-path="url(#clip-Tavola_da_disegno_1)">
    <g id="Raggruppa_1335" data-name="Raggruppa 1335" transform="translate(2683.594 -7664.98)">
      <path id="Tracciato_8181" data-name="Tracciato 8181" d="M3.369,23.086a14.535,14.535,0,0,1-3.331-7.55C-.243,10.476,1.12,6.705,4.252,4.012a5.74,5.74,0,0,1,6.626-1,5.154,5.154,0,0,1,1.22,8.233c-2.742,2.607-6.561,1.525-7.623,6.984A10.4,10.4,0,0,0,6.4,25.652,14.237,14.237,0,0,1,3.369,23.086Zm21.559-.565a14.709,14.709,0,0,1-6.3,4.58c-2.974,1.041-6.826,1.627-10.576-.923-2.571-1.81-2.209-5.06-1.607-6.468A5.211,5.211,0,0,1,14.852,18.3c.2.2,3.372,2.811,6.508,2.127a9.677,9.677,0,0,0,6.3-5.813C28.142,18.025,24.928,22.52,24.928,22.52ZM13.567-.007a16.665,16.665,0,0,1,7.18,1.81c2.538,1.407,5.87,4.82,6.472,8.766.407,2.408-.2,4.938-2.571,6.346-3.209,1.912-8.27-.651-7.668-5.032.521-3.576.362-6.264-2.009-8.31A9.371,9.371,0,0,0,7.262,1.726C9.312.119,13.567-.007,13.567-.007Z" transform="translate(-2683.596 7664.992)" fill="#33587f"/>
      <path id="Tracciato_8182" data-name="Tracciato 8182" d="M88.229,13.725a1.81,1.81,0,0,1-.565,1.436,2.034,2.034,0,0,1-2.62,0,1.814,1.814,0,0,1-.569-1.436V9.93h.814V13.7a1.067,1.067,0,1,0,2.119,0V9.93h.814Z" transform="translate(-2733.706 7659.094)" fill="#33587f"/>
      <path id="Tracciato_8183" data-name="Tracciato 8183" d="M96.93,22.353V21.43h.789v.923Z" transform="translate(-2741.096 7652.272)" fill="#33587f"/>
      <path id="Tracciato_8184" data-name="Tracciato 8184" d="M101.843,14.009a.915.915,0,0,0,1.81-.232c0-.63-.517-.765-.9-.919a2.921,2.921,0,0,1-1.192-.626,1.489,1.489,0,0,1-.378-1.054,1.538,1.538,0,0,1,1.57-1.521,1.314,1.314,0,0,1,1.452,1.106l-.667.3a.814.814,0,0,0-.785-.655.773.773,0,0,0-.753.765c0,.537.508.679.753.769.7.264,1.717.484,1.717,1.835a1.676,1.676,0,0,1-1.717,1.708,1.6,1.6,0,0,1-1.574-1.155Z" transform="translate(-2743.618 7659.262)" fill="#33587f"/>
      <path id="Tracciato_8185" data-name="Tracciato 8185" d="M111.35,22.353V21.43h.789v.923Z" transform="translate(-2749.651 7652.272)" fill="#33587f"/>
      <path id="Tracciato_8186" data-name="Tracciato 8186" d="M121.25,9.919h1.668a2.636,2.636,0,0,1,2.3,1.029,3.206,3.206,0,0,1,.574,1.79,2.961,2.961,0,0,1-.7,1.973,2.912,2.912,0,0,1-2.188.814H121.27Zm.814,4.853h.814a1.892,1.892,0,0,0,2.066-2.034,1.977,1.977,0,0,0-2.034-2.066h-.842Z" transform="translate(-2755.524 7659.105)" fill="#33587f"/>
      <path id="Tracciato_8187" data-name="Tracciato 8187" d="M134.37,15.608a1.456,1.456,0,0,0,1.379,1.143,1.184,1.184,0,0,0,1.119-.553l.789.228a1.944,1.944,0,0,1-1.936,1.058,2.188,2.188,0,0,1-2.136-2.209,2.144,2.144,0,1,1,4.283-.053,3.986,3.986,0,0,1-.024.407ZM137.084,15a1.363,1.363,0,0,0-2.713,0Z" transform="translate(-2762.84 7657.264)" fill="#33587f"/>
      <path id="Tracciato_8188" data-name="Tracciato 8188" d="M145.33,13.318h.72V13.9h0a1.769,1.769,0,0,1,1.489-.757,2.156,2.156,0,0,1,2.172,2.262,2.111,2.111,0,0,1-2.1,2.156,1.627,1.627,0,0,1-1.477-.712h0v2.009h-.789Zm2.172.529a1.44,1.44,0,0,0-1.4,1.485,1.424,1.424,0,1,0,2.847,0A1.485,1.485,0,0,0,147.5,13.847Z" transform="translate(-2769.809 7657.19)" fill="#33587f"/>
      <path id="Tracciato_8189" data-name="Tracciato 8189" d="M160.908,17.422v-.651h0a1.6,1.6,0,0,1-1.424.757,2.205,2.205,0,1,1,0-4.409,1.656,1.656,0,0,1,1.424.7h0v-.517h.785v4.117Zm-1.44-3.588a1.489,1.489,0,1,0,1.452,1.5,1.432,1.432,0,0,0-1.452-1.5Z" transform="translate(-2776.885 7657.204)" fill="#33587f"/>
      <path id="Tracciato_8190" data-name="Tracciato 8190" d="M170.08,17.422V13.305h.732v.305h0a1.273,1.273,0,0,1,1.066-.492v.814a1.485,1.485,0,0,0-.565.151,1.1,1.1,0,0,0-.452,1.049v2.29Z" transform="translate(-2784.491 7657.204)" fill="#33587f"/>
      <path id="Tracciato_8191" data-name="Tracciato 8191" d="M176.775,15.531h-.789V12.057h-.565v-.716h.565V9.93h.789v1.411h.687v.716h-.687Z" transform="translate(-2787.659 7659.094)" fill="#33587f"/>
      <path id="Tracciato_8192" data-name="Tracciato 8192" d="M187.316,17.413V15.095c0-.354-.045-1.257-.993-1.257s-1,.9-1,1.249v2.327h-.789V15.095a1.432,1.432,0,0,0-.175-.862.862.862,0,0,0-.777-.407c-1.037,0-1.037.94-1.037,1.249v2.339h-.789V13.3h.728v.378h0a1.367,1.367,0,0,1,1.22-.565,1.436,1.436,0,0,1,1.3.7,1.44,1.44,0,0,1,1.383-.7,1.6,1.6,0,0,1,1.477.765,2.083,2.083,0,0,1,.236,1.021v2.518Z" transform="translate(-2791.42 7657.212)" fill="#33587f"/>
      <path id="Tracciato_8193" data-name="Tracciato 8193" d="M199.48,15.608a1.456,1.456,0,0,0,1.371,1.143,1.188,1.188,0,0,0,1.119-.553l.789.228a1.949,1.949,0,0,1-1.932,1.058,2.184,2.184,0,0,1-2.131-2.209,2.144,2.144,0,1,1,4.283-.053,3.982,3.982,0,0,1-.024.407ZM202.19,15a1.363,1.363,0,0,0-2.709,0Z" transform="translate(-2801.465 7657.264)" fill="#33587f"/>
      <path id="Tracciato_8194" data-name="Tracciato 8194" d="M213.167,17.419V15.141c0-.325,0-1.31-1.041-1.31-.659,0-1.106.464-1.106,1.3v2.286h-.789V13.3h.72v.37h0a1.489,1.489,0,0,1,1.22-.557,1.692,1.692,0,0,1,1.521.765,1.941,1.941,0,0,1,.264,1.074v2.481Z" transform="translate(-2808.309 7657.207)" fill="#33587f"/>
      <path id="Tracciato_8195" data-name="Tracciato 8195" d="M221.785,15.531H221V12.057h-.569v-.716H221V9.93h.785v1.411h.687v.716h-.687Z" transform="translate(-2814.36 7659.094)" fill="#33587f"/>
      <path id="Tracciato_8196" data-name="Tracciato 8196" d="M233.7,17.579a2.2,2.2,0,1,1,2.266-2.233A2.254,2.254,0,0,1,233.7,17.579Zm0-3.693a.613.613,0,1,0,0-.016Z" transform="translate(-2820.892 7657.169)" fill="#33587f"/>
      <path id="Tracciato_8197" data-name="Tracciato 8197" d="M243.523,15.5V11.88h-.443v-.728h.443V11.1a1.07,1.07,0,0,1,.5-.976,1.6,1.6,0,0,1,1.021-.228l-.15.72c-.521,0-.582.191-.582.484v.053h.659v.72h-.659V15.5Z" transform="translate(-2827.797 7659.121)" fill="#33587f"/>
      <path id="Tracciato_8198" data-name="Tracciato 8198" d="M253.977,15.531V10.683H252.83V9.93h3.116v.753h-1.151v4.849Z" transform="translate(-2833.581 7659.094)" fill="#33587f"/>
      <path id="Tracciato_8199" data-name="Tracciato 8199" d="M262.06,17.422V13.305h.732v.305h0a1.273,1.273,0,0,1,1.066-.492v.814a1.5,1.5,0,0,0-.569.151,1.1,1.1,0,0,0-.439,1.049v2.29Z" transform="translate(-2839.056 7657.204)" fill="#33587f"/>
      <path id="Tracciato_8200" data-name="Tracciato 8200" d="M271.2,17.421v-.651h0a1.6,1.6,0,0,1-1.444.773,2.213,2.213,0,1,1,0-4.426,1.652,1.652,0,0,1,1.424.7h0V13.3h.785v4.117Zm-1.444-3.588a1.489,1.489,0,1,0,1.456,1.5,1.432,1.432,0,0,0-1.456-1.5Z" transform="translate(-2842.3 7657.204)" fill="#33587f"/>
      <path id="Tracciato_8201" data-name="Tracciato 8201" d="M282.941,17.42V15.142c0-.325,0-1.31-1.045-1.31-.675,0-1.082.456-1.082,1.3V17.42H280V13.3h.736v.37h0a1.5,1.5,0,0,1,1.22-.557,1.68,1.68,0,0,1,1.505.765,1.9,1.9,0,0,1,.268,1.074v2.481Z" transform="translate(-2849.699 7657.206)" fill="#33587f"/>
      <path id="Tracciato_8202" data-name="Tracciato 8202" d="M292.571,14.174a.785.785,0,0,0-.765-.358.452.452,0,0,0-.492.447c0,.35.3.439.651.545s1.265.362,1.265,1.363a1.306,1.306,0,0,1-1.4,1.355,1.627,1.627,0,0,1-1.485-1.1l.635-.228a.785.785,0,0,0,.85.6.557.557,0,0,0,.606-.578c0-.37-.325-.5-.732-.643s-1.184-.37-1.184-1.265a1.257,1.257,0,0,1,1.318-1.22,1.521,1.521,0,0,1,1.363.846Z" transform="translate(-2855.839 7657.222)" fill="#33587f"/>
      <path id="Tracciato_8203" data-name="Tracciato 8203" d="M299,13.318h.72V13.9h0a1.769,1.769,0,0,1,1.489-.757,2.156,2.156,0,0,1,2.172,2.262,2.111,2.111,0,0,1-2.123,2.156,1.627,1.627,0,0,1-1.473-.712h0v2.009H299Zm2.172.529a1.44,1.44,0,0,0-1.4,1.485,1.424,1.424,0,0,0,2.847,0,1.481,1.481,0,0,0-1.469-1.485Z" transform="translate(-2860.97 7657.19)" fill="#33587f"/>
      <path id="Tracciato_8204" data-name="Tracciato 8204" d="M313.274,17.555a2.21,2.21,0,1,1,2.253-2.249A2.254,2.254,0,0,1,313.274,17.555Zm0-3.693a.613.613,0,1,0,0-.016Z" transform="translate(-2868.089 7657.192)" fill="#33587f"/>
      <path id="Tracciato_8205" data-name="Tracciato 8205" d="M323.76,17.422V13.305h.732v.305h0a1.273,1.273,0,0,1,1.066-.492v.814a1.485,1.485,0,0,0-.565.151,1.094,1.094,0,0,0-.464,1.054v2.286Z" transform="translate(-2875.658 7657.204)" fill="#33587f"/>
      <path id="Tracciato_8206" data-name="Tracciato 8206" d="M330.455,15.531h-.789V12.057H329.1v-.716h.565V9.93h.789v1.411h.687v.716h-.687Z" transform="translate(-2878.826 7659.094)" fill="#33587f"/>
      <path id="Tracciato_8207" data-name="Tracciato 8207" d="M338.4,17.422v-.651h0a1.627,1.627,0,0,1-1.424.757,2.205,2.205,0,1,1,0-4.409,1.664,1.664,0,0,1,1.424.7h0v-.517h.789v4.117Zm-1.436-3.588a1.489,1.489,0,1,0,1.452,1.5,1.432,1.432,0,0,0-1.452-1.5Z" transform="translate(-2882.177 7657.204)" fill="#33587f"/>
      <path id="Tracciato_8208" data-name="Tracciato 8208" d="M347.956,15.531h-.781V12.057h-.565v-.716h.565V9.93h.789v1.411h.687v.716h-.687Z" transform="translate(-2889.214 7659.094)" fill="#33587f"/>
      <path id="Tracciato_8209" data-name="Tracciato 8209" d="M353.719,10.853h-.789V9.93h.789Zm0,4.678h-.789v-4.19h.789Z" transform="translate(-2892.963 7659.094)" fill="#33587f"/>
      <path id="Tracciato_8210" data-name="Tracciato 8210" d="M358.382,17.445a2.247,2.247,0,1,1,2.262-2.233A2.253,2.253,0,0,1,358.382,17.445Zm0-3.693a.613.613,0,1,0,0-.016Z" transform="translate(-2894.855 7657.303)" fill="#33587f"/>
      <path id="Tracciato_8211" data-name="Tracciato 8211" d="M371.387,17.419V15.141c0-.325,0-1.31-1.045-1.31-.655,0-1.1.464-1.1,1.3v2.286h-.789V13.3h.736v.37h0a1.5,1.5,0,0,1,1.22-.557,1.692,1.692,0,0,1,1.521.765,1.939,1.939,0,0,1,.264,1.074v2.481Z" transform="translate(-2902.17 7657.207)" fill="#33587f"/>
      <path id="Tracciato_8212" data-name="Tracciato 8212" d="M84.48,33.31h3.368l2.034,6.744h.028L91.92,33.31H95.3V43.561H92.888l.085-7.676-.028-.028-2.327,7.7H89.166l-2.331-7.7-.024.028.081,7.676H84.48Z" transform="translate(-2733.711 7645.224)" fill="#33587f"/>
      <path id="Tracciato_8213" data-name="Tracciato 8213" d="M122.952,46.936h-2.3v-.814h-.028a2.476,2.476,0,0,1-2.241,1.094A3.847,3.847,0,0,1,114.52,43.1a3.876,3.876,0,0,1,3.856-4.1,2.492,2.492,0,0,1,2.241,1.082h.028v-.675h2.3Zm-4.222-1.883a1.961,1.961,0,1,0-1.912-1.94,1.9,1.9,0,0,0,1.912,1.94Z" transform="translate(-2751.531 7641.849)" fill="#33587f"/>
      <path id="Tracciato_8214" data-name="Tracciato 8214" d="M138.9,39.413h2.16v.679h.028a1.892,1.892,0,0,1,1.924-1.082l-.407,2.315c-1.066.028-1.4.248-1.4,1.411v4.206H138.9Z" transform="translate(-2765.994 7641.843)" fill="#33587f"/>
      <path id="Tracciato_8215" data-name="Tracciato 8215" d="M153.619,35.055H151.3V33.31h2.319Zm0,8.506H151.3V35.873h2.319Z" transform="translate(-2773.35 7645.224)" fill="#33587f"/>
      <path id="Tracciato_8216" data-name="Tracciato 8216" d="M162.8,35.873h1.106v1.745H162.8v5.943h-2.3V37.618H159.37V35.873H160.5V33.31h2.3Z" transform="translate(-2778.138 7645.224)" fill="#33587f"/>
      <path id="Tracciato_8217" data-name="Tracciato 8217" d="M175.294,35.055H173V33.31h2.3Zm0,8.506H173V35.873h2.3Z" transform="translate(-2786.223 7645.224)" fill="#33587f"/>
      <path id="Tracciato_8218" data-name="Tracciato 8218" d="M182.73,39.4h2.144v.679h.028A2.18,2.18,0,0,1,187.021,39a2.4,2.4,0,0,1,2.217,1.371,2.921,2.921,0,0,1,4.474-.594c.72.761.834,1.273.834,2.978v4.178h-2.3V42.861c0-.622,0-1.7-1.176-1.7-1.273,0-1.273,1.163-1.273,1.595v4.178h-2.319V42.743c0-.407,0-1.607-1.147-1.607-1.3,0-1.3,1.249-1.3,1.7v4.068h-2.3Z" transform="translate(-2791.995 7641.856)" fill="#33587f"/>
      <path id="Tracciato_8219" data-name="Tracciato 8219" d="M221.814,45.509a2.916,2.916,0,0,1-1.013,1,3.84,3.84,0,0,1-2.188.692,4.1,4.1,0,1,1,4.019-4,3.1,3.1,0,0,1-.057.61h-5.764a1.729,1.729,0,0,0,1.8,1.452,1.5,1.5,0,0,0,1.261-.443Zm-1.485-3.254a1.814,1.814,0,0,0-3.49,0Z" transform="translate(-2810.802 7641.848)" fill="#33587f"/>
      <path id="Tracciato_8220" data-name="Tracciato 8220" d="M249.862,42.076l-.541,1.485H246.51l4.112-10.251h2.062l4.068,10.251h-2.847l-.5-1.485Zm.72-2.079h2.144l-1.049-3.5h-.045Z" transform="translate(-2829.832 7645.224)" fill="#33587f"/>
      <path id="Tracciato_8221" data-name="Tracciato 8221" d="M281.533,43.62h-2.188v-.814h-.024a2.423,2.423,0,0,1-2.3,1.082,3.84,3.84,0,0,1-3.848-4.112,3.815,3.815,0,0,1,3.807-4.068,2.945,2.945,0,0,1,2.258.915V33.41h2.3Zm-4.141-1.9a1.92,1.92,0,0,0,1.969-1.969,1.948,1.948,0,1,0-1.969,1.981Z" transform="translate(-2845.647 7645.165)" fill="#33587f"/>
      <path id="Tracciato_8222" data-name="Tracciato 8222" d="M297.82,39.4h2.148v.679H300A2.18,2.18,0,0,1,302.115,39a2.4,2.4,0,0,1,2.217,1.371,2.921,2.921,0,0,1,4.474-.594c.72.761.814,1.273.814,2.978v4.178h-2.3V42.861c0-.622,0-1.7-1.176-1.7-1.277,0-1.277,1.163-1.277,1.595v4.178h-2.3V42.743c0-.407,0-1.607-1.151-1.607-1.3,0-1.3,1.249-1.3,1.7v4.068h-2.3Z" transform="translate(-2860.27 7641.856)" fill="#33587f"/>
      <path id="Tracciato_8223" data-name="Tracciato 8223" d="M333.118,35.055h-2.3V33.31h2.3Zm0,8.506h-2.3V35.873h2.3Z" transform="translate(-2879.847 7645.224)" fill="#33587f"/>
      <path id="Tracciato_8224" data-name="Tracciato 8224" d="M340.542,39.413h2.148v.679h.024a2.192,2.192,0,0,1,2.091-1.082,3.3,3.3,0,0,1,1.969.667,2.941,2.941,0,0,1,.887,2.477v4.788h-2.3v-4.2c0-.541,0-1.595-1.22-1.595-1.314,0-1.314,1.135-1.314,1.607v4.186h-2.3Z" transform="translate(-2885.607 7641.843)" fill="#33587f"/>
      <path id="Tracciato_8225" data-name="Tracciato 8225" d="M364.378,35.055h-2.3V33.31h2.3Zm0,8.506h-2.3V35.873h2.3Z" transform="translate(-2898.391 7645.224)" fill="#33587f"/>
      <path id="Tracciato_8226" data-name="Tracciato 8226" d="M374.736,41.235a1.106,1.106,0,0,0-1.277-.443c-.305.1-.553.207-.651.513-.179.541.569.663,1.18.814,1.3.374,2.685.748,2.685,2.412s-1.538,2.546-3.128,2.616a3.226,3.226,0,0,1-3.254-1.993l1.871-.407a1.273,1.273,0,0,0,1.428.565c.37-.094.814-.22.814-.594,0-.594-.553-.708-2.034-1.22-.98-.362-1.826-.968-1.826-2.009,0-1.521,1.456-2.441,2.978-2.534a3.051,3.051,0,0,1,3.087,1.871Z" transform="translate(-2903.261 7641.884)" fill="#33587f"/>
      <path id="Tracciato_8227" data-name="Tracciato 8227" d="M391.263,35.873h1.11v1.745h-1.106v5.943h-2.3V37.618H387.83V35.873h1.135V33.31h2.3Z" transform="translate(-2913.667 7645.224)" fill="#33587f"/>
      <path id="Tracciato_8228" data-name="Tracciato 8228" d="M401.41,39.413h2.16v.679h.028a1.888,1.888,0,0,1,1.924-1.082l-.407,2.315c-1.066.028-1.4.248-1.4,1.411v4.206h-2.3Z" transform="translate(-2921.723 7641.843)" fill="#33587f"/>
      <path id="Tracciato_8229" data-name="Tracciato 8229" d="M421.352,46.942h-2.3v-.814h-.029a2.476,2.476,0,0,1-2.241,1.094,3.847,3.847,0,0,1-3.864-4.112,3.881,3.881,0,0,1,3.864-4.1,2.492,2.492,0,0,1,2.241,1.082h.029v-.679h2.3Zm-4.222-1.883a1.961,1.961,0,1,0-1.912-1.94,1.9,1.9,0,0,0,1.912,1.94Z" transform="translate(-2928.551 7641.843)" fill="#33587f"/>
      <path id="Tracciato_8230" data-name="Tracciato 8230" d="M439.1,35.873h1.106v1.745H439.1v5.943h-2.3V37.618H435.67V35.873H436.8V33.31h2.3Z" transform="translate(-2942.047 7645.224)" fill="#33587f"/>
      <path id="Tracciato_8231" data-name="Tracciato 8231" d="M451.588,35.055h-2.3V33.31h2.3Zm0,8.506h-2.3V35.873h2.3Z" transform="translate(-2950.126 7645.224)" fill="#33587f"/>
      <path id="Tracciato_8232" data-name="Tracciato 8232" d="M462.28,39a4.068,4.068,0,1,1-4.141,4.068A4.015,4.015,0,0,1,462.28,39Zm0,6.024a1.944,1.944,0,1,0-1.843-1.957,1.875,1.875,0,0,0,1.843,1.957Z" transform="translate(-2955.376 7641.852)" fill="#33587f"/>
      <path id="Tracciato_8233" data-name="Tracciato 8233" d="M481.7,39.413h2.156v.679h.028a2.193,2.193,0,0,1,2.091-1.082,3.307,3.307,0,0,1,1.948.647,2.943,2.943,0,0,1,.883,2.477v4.808h-2.3v-4.2c0-.541,0-1.595-1.22-1.595-1.314,0-1.314,1.135-1.314,1.607v4.186H481.7Z" transform="translate(-2969.353 7641.843)" fill="#33587f"/>
    </g>
  </g>
</svg>
