<svg xmlns="http://www.w3.org/2000/svg" width="90" height="90" viewBox="0 0 90 90"><defs><style>.a{fill:#125d91;}.b{fill:#fff;}</style></defs><g transform="translate(-851 -281)"><g transform="translate(-46 -66)"><g transform="translate(27 -34)"><g transform="translate(870 381)"><circle class="a" cx="45" cy="45" r="45"/><g transform="translate(23 25)"><path class="b" d="M-822.574,405.391q-10.86,0-21.721.014c-.564,0-.69-.132-.684-.637.031-2.416.025-4.833,0-7.25,0-.418.088-.548.575-.541a9.664,9.664,0,0,1,2.817.441,13.044,13.044,0,0,0,7.917.084,12.841,12.841,0,0,1,7.66.081,11.274,11.274,0,0,0,6.444.127,16.7,16.7,0,0,1,5.548-.714,8.475,8.475,0,0,1,2.223.376,13.126,13.126,0,0,0,8.425.024,9.007,9.007,0,0,1,2.823-.415c.349,0,.508.033.506.415-.019,2.519-.028,5.038.006,7.557.007.514-.289.438-.621.438Q-811.613,405.389-822.574,405.391Z" transform="translate(844.979 -364.561)"/><path class="b" d="M-730.58,208.231a21.317,21.317,0,0,1-2.227,1.272,2.9,2.9,0,0,0-1.977,2.5c-.041.439-.281.533-.706.507a8.717,8.717,0,0,0-1.4,0c-.595.06-.592-.176-.475-.6.708-2.531,1.4-5.066,2.093-7.6.744-2.713,1.5-5.423,2.217-8.141.115-.434.291-.593.8-.585,1.981.03,3.964.02,5.946.006.368,0,.55.079.648.436Q-723.5,204-721.3,211.959c.111.4.084.624-.454.555a5.245,5.245,0,0,0-.667,0c-1.367,0-1.4.006-1.673-1.248a1.763,1.763,0,0,0-1.022-1.314c-.874-.442-1.7-.969-2.537-1.47-.336-.2-.452-.153-.446.23.017,1.085-.013,2.17.015,3.255.01.411-.089.6-.58.556a8.96,8.96,0,0,0-1.4,0c-.427.031-.525-.121-.518-.488C-730.566,210.808-730.58,209.587-730.58,208.231Zm2.592-11.089-.069.035v7.54c.593-.343,1.109-.652,1.637-.943.272-.149.17-.342.118-.536-.214-.793-.426-1.586-.645-2.378C-727.291,199.621-727.641,198.382-727.988,197.142Zm-2.6.026-.121-.027q-.851,3.119-1.7,6.239c-.033.119-.071.244.073.329.56.327,1.12.653,1.749,1.019Zm-3.082,10.815c.5-.29.84-.482,1.174-.676,1.445-.844,1.445-.844-.029-1.658-.057-.031-.113-.064-.168-.1-.2-.125-.306-.075-.362.143C-733.235,206.4-733.431,207.109-733.667,207.983Zm7.867-2.447a6.692,6.692,0,0,0-1.511.777c-.167.078-.282.2-.008.348.731.4,1.445.825,2.257,1.293A8.892,8.892,0,0,0-725.8,205.536Z" transform="translate(751.812 -187.957)"/><path class="b" d="M-743.679,345.046c3.207,0,6.414.014,9.621-.013.573,0,.695.156.688.654a10.624,10.624,0,0,1-.7,3.975c-.093.225-.19.4-.514.353a19.75,19.75,0,0,0-7.02.816,10.489,10.489,0,0,1-5.584-.321,12.408,12.408,0,0,0-5.128-.509c-.648.067-.948-.113-1.135-.678a11.806,11.806,0,0,1-.535-3.94c.007-.461.364-.325.616-.326q4.844-.01,9.688,0Z" transform="translate(766.155 -319.021)"/><path class="b" d="M-711.007,139.619c-1.447,0-2.893,0-4.34,0-.794,0-.9-.1-.917-.8-.026-1.528-.026-1.528,1.669-1.527,1.3,0,1.3,0,1.3-1.219,0-1.509.618-2.357,1.872-2.574a2.241,2.241,0,0,1,2.687,1.938c.027.49.029.982.009,1.472-.012.3.106.39.422.381.6-.016,1.2,0,1.8,0,.48,0,.726.192.752.662.093,1.668.1,1.667-1.718,1.667h-3.538Z" transform="translate(733.483 -133.461)"/></g></g></g></g></g></svg>